<svg xmlns="http://www.w3.org/2000/svg" width="400" height="400" viewBox="0 0 400 400">
  <defs>
    <linearGradient id="bg" x1="0%" y1="0%" x2="100%" y2="100%">
      <stop offset="0%" style="stop-color:#e74c3c;stop-opacity:1" />
      <stop offset="100%" style="stop-color:#e74c3c88;stop-opacity:1" />
    </linearGradient>
  </defs>
  <rect width="400" height="400" fill="url(#bg)" rx="8"/>
  <g transform="translate(200, 160)">
    <ellipse cx="0" cy="-30" rx="20" ry="30" fill="rgba(255,255,255,0.4)"/>
    <ellipse cx="0" cy="-30" rx="20" ry="30" fill="rgba(255,255,255,0.4)" transform="rotate(60)"/>
    <ellipse cx="0" cy="-30" rx="20" ry="30" fill="rgba(255,255,255,0.4)" transform="rotate(120)"/>
    <ellipse cx="0" cy="-30" rx="20" ry="30" fill="rgba(255,255,255,0.4)" transform="rotate(180)"/>
    <ellipse cx="0" cy="-30" rx="20" ry="30" fill="rgba(255,255,255,0.4)" transform="rotate(240)"/>
    <ellipse cx="0" cy="-30" rx="20" ry="30" fill="rgba(255,255,255,0.4)" transform="rotate(300)"/>
    <circle cx="0" cy="0" r="15" fill="rgba(255,255,255,0.6)"/>
    <rect x="-4" y="30" width="8" height="80" rx="4" fill="rgba(255,255,255,0.3)"/>
    <ellipse cx="25" cy="70" rx="20" ry="10" fill="rgba(255,255,255,0.3)" transform="rotate(-30, 25, 70)"/>
    <ellipse cx="-25" cy="90" rx="18" ry="8" fill="rgba(255,255,255,0.3)" transform="rotate(30, -25, 90)"/>
  </g>
  <text x="200" y="300" text-anchor="middle" font-family="Arial, sans-serif" font-size="24" font-weight="bold" fill="rgba(255,255,255,0.9)">红玫瑰</text>
  <text x="200" y="330" text-anchor="middle" font-family="Arial, sans-serif" font-size="14" fill="rgba(255,255,255,0.6)">花语花坊</text>
</svg>